<?xml version="1.0" standalone="no"?>
<!DOCTYPE svg PUBLIC "-//W3C//DTD SVG 20010904//EN"
 "http://www.w3.org/TR/2001/REC-SVG-20010904/DTD/svg10.dtd">
<svg version="1.0" xmlns="http://www.w3.org/2000/svg"
 width="586.000000pt" height="586.000000pt" viewBox="0 0 586.000000 586.000000"
 preserveAspectRatio="xMidYMid meet">
<metadata>
Created by potrace 1.11, written by Peter Selinger 2001-2013
</metadata>
<g transform="translate(0.000000,586.000000) scale(0.100000,-0.100000)"
fill="#000000" stroke="none">
<path d="M1681 5850 c-37 -9 -50 -23 -52 -57 -1 -13 -3 -27 -4 -33 -1 -5 -3
-16 -4 -24 0 -7 -14 -29 -30 -49 -21 -27 -30 -52 -35 -97 -5 -46 -14 -68 -35
-93 -21 -24 -30 -46 -33 -85 -4 -37 -14 -65 -35 -95 -23 -32 -31 -56 -35 -101
-4 -50 -9 -63 -32 -81 -22 -18 -29 -34 -38 -95 -8 -56 -17 -80 -36 -99 -18
-18 -26 -40 -31 -81 -4 -32 -16 -70 -27 -85 -36 -52 -44 -70 -44 -108 0 -39
-24 -97 -39 -97 -12 0 -28 -51 -35 -114 -4 -34 -15 -58 -36 -82 -23 -26 -30
-45 -30 -75 0 -42 -23 -109 -38 -109 -15 0 -32 -49 -32 -96 0 -35 -6 -50 -30
-75 -16 -17 -32 -46 -34 -63 -3 -17 -7 -49 -10 -70 -3 -23 -16 -50 -31 -66
-19 -20 -28 -44 -35 -90 -6 -39 -16 -70 -29 -84 -27 -28 -41 -69 -41 -117 0
-30 -7 -47 -30 -70 -20 -22 -31 -45 -35 -77 -11 -86 -16 -99 -40 -122 -17 -16
-26 -38 -31 -79 -7 -57 -28 -111 -43 -111 -13 0 -31 -58 -31 -101 0 -26 -8
-47 -26 -68 -28 -34 -44 -80 -44 -129 0 -22 -9 -42 -29 -62 -23 -24 -31 -45
-39 -102 -8 -55 -17 -77 -39 -100 -27 -28 -28 -34 -28 -124 0 -84 2 -97 20
-110 17 -12 100 -14 558 -12 l539 3 18 22 c10 12 21 46 24 75 4 33 18 69 35
95 23 34 30 59 36 123 6 67 12 86 36 116 18 23 29 48 29 69 0 18 5 46 11 64
10 30 14 31 43 25 17 -5 155 -8 308 -8 152 -1 279 -4 283 -8 14 -13 -6 -77
-32 -109 -20 -23 -29 -48 -34 -91 -5 -39 -16 -73 -34 -100 -25 -37 -29 -55
-36 -162 -4 -69 -14 -137 -23 -158 -31 -73 -37 -136 -37 -364 -1 -248 2 -280
32 -363 11 -30 22 -90 25 -135 8 -136 14 -163 39 -192 16 -19 26 -46 30 -83 9
-77 13 -88 41 -114 14 -14 27 -41 33 -71 6 -34 18 -56 40 -76 17 -16 31 -38
31 -50 0 -11 13 -34 30 -51 16 -17 34 -45 40 -63 5 -17 23 -39 39 -49 16 -9
32 -28 35 -42 3 -13 19 -31 35 -39 16 -9 31 -26 35 -39 3 -13 17 -29 31 -35
14 -7 30 -23 36 -36 7 -13 22 -27 35 -30 13 -4 31 -20 39 -36 9 -17 22 -30 30
-30 8 0 32 -18 54 -40 22 -22 49 -40 61 -40 12 0 34 -13 50 -30 16 -17 44 -33
70 -39 23 -5 54 -21 69 -35 21 -20 43 -28 94 -34 47 -6 74 -15 90 -30 28 -27
108 -42 220 -42 46 0 92 -6 114 -15 29 -12 96 -15 373 -15 277 0 344 3 373 15
21 8 68 15 109 15 104 1 156 13 185 44 14 15 35 26 51 27 62 1 88 9 109 34 14
15 40 29 70 35 37 8 52 17 64 39 11 18 29 32 48 36 17 3 45 20 62 36 17 16 35
29 41 29 14 0 184 175 211 217 14 21 31 44 40 51 9 8 19 27 22 43 4 16 20 39
36 52 21 16 34 38 40 68 7 28 20 52 37 66 l27 21 0 232 c0 276 6 263 -125 275
-67 6 -87 12 -112 33 -26 22 -46 28 -110 33 -63 6 -83 12 -109 33 -33 28 -45
32 -134 41 -38 3 -69 13 -85 25 -40 32 -67 40 -135 41 -45 1 -72 -4 -94 -17
-36 -21 -42 -45 -50 -184 -1 -8 -12 -28 -26 -44 -14 -16 -30 -48 -36 -70 -18
-70 -19 -74 -35 -80 -8 -3 -23 -26 -34 -50 -10 -24 -27 -47 -37 -50 -10 -3
-26 -19 -35 -36 -10 -17 -25 -30 -37 -30 -11 0 -29 -12 -40 -26 -17 -22 -34
-28 -113 -39 -51 -7 -113 -21 -137 -29 -58 -21 -115 -20 -181 3 -30 11 -88 23
-128 27 -62 6 -76 10 -89 31 -9 13 -30 30 -48 37 -18 8 -47 33 -66 56 -19 23
-46 54 -61 68 -20 18 -28 35 -28 58 0 23 -10 45 -32 70 -31 36 -33 40 -39 153
-4 76 -15 144 -30 196 -21 71 -23 100 -23 260 0 159 2 187 22 243 12 35 24 85
28 110 3 26 9 51 14 55 4 5 181 8 394 7 252 0 400 3 426 10 55 15 66 44 34 83
-16 19 -24 41 -24 65 0 52 -16 101 -41 128 -15 16 -25 44 -31 86 -6 44 -15 70
-33 88 -29 31 -48 77 -35 85 15 9 50 -4 86 -31 22 -18 44 -24 78 -24 42 0 51
-4 79 -35 17 -19 36 -35 43 -35 7 0 45 -36 83 -80 54 -61 71 -87 71 -110 0
-18 9 -39 23 -52 12 -12 31 -40 42 -63 l20 -40 110 0 c104 1 112 2 153 29 38
26 54 30 156 36 100 6 120 11 162 35 42 24 62 29 158 35 186 11 199 28 194
228 l-3 129 -31 26 c-23 19 -33 38 -37 68 -4 31 -14 49 -35 66 -16 12 -33 35
-37 50 -3 15 -15 33 -26 41 -11 7 -26 30 -35 50 -8 20 -29 51 -47 69 -18 17
-40 40 -49 50 -20 21 -96 90 -154 138 -23 19 -51 35 -62 35 -12 0 -31 13 -44
30 -14 19 -37 34 -62 41 -23 6 -53 22 -68 37 -21 19 -43 27 -89 33 -50 6 -66
12 -83 34 -20 25 -29 28 -128 35 -79 5 -118 13 -148 29 -62 32 -139 39 -413
37 -279 -1 -249 -10 -261 78 -3 23 -16 50 -30 65 -19 20 -28 44 -35 96 -7 49
-16 74 -30 85 -25 19 -41 61 -41 106 0 33 -14 72 -30 84 -23 18 -40 60 -40
101 0 36 -6 55 -26 78 -28 34 -44 80 -44 127 0 22 -9 41 -29 60 -24 24 -31 42
-40 104 -7 55 -15 79 -30 91 -26 21 -41 60 -41 107 0 26 -8 47 -29 71 -28 32
-41 75 -41 133 0 18 -10 37 -29 54 -24 21 -30 36 -36 90 -5 46 -13 72 -31 93
-31 37 -44 73 -44 122 0 25 -7 46 -19 58 -30 30 -40 54 -47 114 -5 43 -13 62
-35 83 -18 17 -29 38 -29 54 0 39 -19 87 -38 97 -22 11 -1167 14 -1211 3z
m609 -1152 c21 -34 25 -52 35 -150 5 -42 14 -67 36 -94 24 -31 29 -46 29 -95
0 -67 12 -104 41 -128 18 -14 23 -34 29 -105 7 -76 12 -92 35 -116 22 -23 28
-40 31 -91 7 -92 10 -102 44 -144 31 -39 39 -75 18 -75 -10 -1 -501 0 -627 0
-22 0 -9 95 17 123 28 30 42 70 42 121 0 41 16 105 29 116 24 21 35 51 42 121
5 51 15 90 26 106 37 52 43 69 43 129 0 52 4 67 31 103 21 30 32 58 35 94 9
97 15 117 30 117 8 0 23 -15 34 -32z"/>
</g>
</svg>
